<svg xmlns="http://www.w3.org/2000/svg" width="64" height="64"><circle cx="33.9" cy="27.4" r="5.2" fill="#EF9122"/><path fill="#F26E21" d="M28.7 27.4c0-2.9 2.3-5.2 5.2-5.2 2.9 0 5.2 2.3 5.2 5.2 0 2.9-2.3 5.2-5.2 5.2"/><path fill="#F44500" d="M30.3 23.7c2-2 5.3-2 7.3 0s2 5.3 0 7.3"/><path fill="#fff" d="M3.8 22.5H1v9.8h2.8c1.5 0 2.6-.4 3.5-1.1 1.1-.9 1.8-2.3 1.8-3.8 0-2.9-2.1-4.9-5.3-4.9zm2.3 7.4c-.6.5-1.4.8-2.6.8h-.6v-6.5h.5c1.2 0 2 .2 2.6.8.7.6 1.1 1.5 1.1 2.4.1.9-.3 1.9-1 2.5zm3.9-7.4h1.9v9.8H10zm6.7 3.8c-1.2-.4-1.5-.7-1.5-1.2 0-.6.6-1.1 1.4-1.1.6 0 1.1.2 1.6.8l1-1.3c-.8-.7-1.8-1.1-2.9-1.1-1.7 0-3.1 1.2-3.1 2.8 0 1.4.6 2 2.4 2.7.8.3 1.1.4 1.3.6.4.2.6.6.6 1 0 .8-.6 1.4-1.5 1.4s-1.7-.5-2.1-1.3l-1.2 1.2c.9 1.3 2 1.9 3.4 1.9 2 0 3.4-1.3 3.4-3.2 0-1.7-.6-2.4-2.8-3.2zM20.1 27.4c0 2.9 2.3 5.1 5.2 5.1.8 0 1.5-.2 2.4-.6v-2.3c-.8.8-1.5 1.1-2.3 1.1-1.9 0-3.3-1.4-3.3-3.4 0-1.9 1.4-3.4 3.2-3.4.9 0 1.6.3 2.4 1.1v-2.3c-.8-.4-1.5-.6-2.4-.6-2.8.2-5.2 2.5-5.2 5.3zM43.4 29.1l-2.6-6.6h-2.1l4.1 10.1h1.1l4.3-10.1h-2.1zm5.6 3.2h5.5v-1.6H51V28h3.4v-1.7H51v-2.1h3.5v-1.7H49z"/><path fill="#fff" d="M59.9 28.2c1.5-.3 2.3-1.3 2.3-2.8 0-1.8-1.3-2.9-3.5-2.9h-2.9v9.8h1.9v-3.9h.3l2.7 3.9H63l-3.1-4.1zM58.3 27h-.6v-3h.6c1.2 0 1.9.5 1.9 1.5s-.7 1.5-1.9 1.5zM3.8 22.5H1v9.8h2.8c1.5 0 2.6-.4 3.5-1.1 1.1-.9 1.8-2.3 1.8-3.8 0-2.9-2.1-4.9-5.3-4.9zm2.3 7.4c-.6.5-1.4.8-2.6.8h-.6v-6.5h.5c1.2 0 2 .2 2.6.8.7.6 1.1 1.5 1.1 2.4.1.9-.3 1.9-1 2.5zm3.9-7.4h1.9v9.8H10zm6.7 3.8c-1.2-.4-1.5-.7-1.5-1.2 0-.6.6-1.1 1.4-1.1.6 0 1.1.2 1.6.8l1-1.3c-.8-.7-1.8-1.1-2.9-1.1-1.7 0-3.1 1.2-3.1 2.8 0 1.4.6 2 2.4 2.7.8.3 1.1.4 1.3.6.4.2.6.6.6 1 0 .8-.6 1.4-1.5 1.4s-1.7-.5-2.1-1.3l-1.2 1.2c.9 1.3 2 1.9 3.4 1.9 2 0 3.4-1.3 3.4-3.2 0-1.7-.6-2.4-2.8-3.2zm8.7 6.2c.8 0 1.5-.2 2.4-.6v-2.3c-.8.8-1.5 1.1-2.3 1.1-1.9 0-3.3-1.4-3.3-3.4 0-1 .4-1.8 1-2.5l-1.3-1.3c-1 .9-1.7 2.3-1.7 3.8-.1 3 2.2 5.2 5.2 5.2z"/><path fill="#fff" d="M59.9 28.2c1.5-.3 2.3-1.3 2.3-2.8 0-1.8-1.3-2.9-3.5-2.9h-2.9v9.8h1.9v-3.9h.3l2.7 3.9H63l-3.1-4.1zM58.3 27h-.6v-3h.6c1.2 0 1.9.5 1.9 1.5s-.7 1.5-1.9 1.5zM52.8 30.7H51v-1.8l-2-2v5.4h5.4zM45.6 23.5l-2.2 5.6-2.6-6.6h-2.1l4.1 10.1h1.1l3.2-7.6z"/></svg>